HIERARCHY
ROOT Hips
{
	OFFSET 0.000000 0.000000 0.000000 
	CHANNELS 6 Xposition Yposition Zposition Zrotation Yrotation Xrotation
	JOINT LeftUpLeg
	{
		OFFSET 1.363060 -1.794630 0.839290 
		CHANNELS 3 Zrotation Yrotation Xrotation
		JOINT LeftLeg
		{
			OFFSET 2.448110 -6.726130 0.000000 
			CHANNELS 3 Zrotation Yrotation Xrotation
			JOINT LeftFoot
			{
				OFFSET 2.562200 -7.039590 0.000000 
				CHANNELS 3 Zrotation Yrotation Xrotation
				JOINT LeftToeBase
				{
					OFFSET 0.157640 -0.433110 2.322550 
					CHANNELS 3 Zrotation Yrotation Xrotation
					End Site
					{
						OFFSET 0.000000 0.000000 0.000000 
					}
				}
			}
		}
	}
	JOINT RightUpLeg
	{
		OFFSET -1.305520 -1.794630 0.839290 
		CHANNELS 3 Zrotation Yrotation Xrotation
		JOINT RightLeg
		{
			OFFSET -2.542530 -6.985550 0.000000 
			CHANNELS 3 Zrotation Yrotation Xrotation
			JOINT RightFoot
			{
				OFFSET -2.568260 -7.056230 0.000000 
				CHANNELS 3 Zrotation Yrotation Xrotation
				JOINT RightToeBase
				{
					OFFSET -0.164730 -0.452590 2.363150 
					CHANNELS 3 Zrotation Yrotation Xrotation
					End Site
					{
						OFFSET 0.000000 0.000000 0.000000 
					}
				}
			}
		}
	}
	JOINT Spine
	{
		OFFSET 0.028270 2.035590 -0.193380 
		CHANNELS 3 Zrotation Yrotation Xrotation
		JOINT Spine1
		{
			OFFSET 0.056720 2.048850 -0.042750 
			CHANNELS 3 Zrotation Yrotation Xrotation
			JOINT Neck1
			{
				OFFSET -0.054170 1.746240 0.172020 
				CHANNELS 3 Zrotation Yrotation Xrotation
				JOINT Head
				{
					OFFSET 0.104070 1.761360 -0.123970 
					CHANNELS 3 Zrotation Yrotation Xrotation
					End Site
					{
						OFFSET 0.000000 0.000000 0.000000 
					}
				}
			}
			JOINT LeftArm
			{
				OFFSET 3.362410 1.200890 -0.311210 
				CHANNELS 3 Zrotation Yrotation Xrotation
				JOINT LeftForeArm
				{
					OFFSET 4.983000 -0.000000 -0.000000 
					CHANNELS 3 Zrotation Yrotation Xrotation
					JOINT LeftHand
					{
						OFFSET 3.483560 -0.000000 -0.000000 
						CHANNELS 3 Zrotation Yrotation Xrotation
						JOINT LeftHandIndex1
						{
							OFFSET 0.715260 -0.000000 -0.000000 
							CHANNELS 3 Zrotation Yrotation Xrotation
							End Site
							{
								OFFSET 0.000000 0.000000 0.000000 
							}
						}
					}
				}
			}
			JOINT RightArm
			{
				OFFSET -3.136600 1.374050 -0.404650 
				CHANNELS 3 Zrotation Yrotation Xrotation
				JOINT RightForeArm
				{
					OFFSET -5.241900 -0.000000 -0.000000 
					CHANNELS 3 Zrotation Yrotation Xrotation
					JOINT RightHand
					{
						OFFSET -3.444170 -0.000000 -0.000000 
						CHANNELS 3 Zrotation Yrotation Xrotation
						JOINT RightHandIndex1
						{
							OFFSET -0.622530 -0.000000 -0.000000 
							CHANNELS 3 Zrotation Yrotation Xrotation
							End Site
							{
								OFFSET 0.000000 0.000000 0.000000 
							}
						}
					}
				}
			}
		}
	}
}
MOTION
Frames: 12
Frame Time: 0.041667
11.313400 17.970262 -6.818517 -74.738033 -85.666479 87.671631 -14.078347 -7.130763 -23.654737 0.718584 6.385650 21.978087 -3.628599 14.028714 -2.606941 0.019200 -0.894500 -2.458500 16.792719 5.883540 -30.057036 -4.000513 -11.156888 37.563713 4.064078 -14.173665 -7.737326 -0.062400 -1.611300 4.432600 4.523050 0.438316 19.090757 1.524404 0.836242 -2.475103 2.664472 -6.820376 29.135491 0.948500 -4.017500 12.216400 -72.157081 29.840560 53.057972 60.718890 -54.266753 -34.280963 0.933853 -0.522366 16.043637 -7.125000 0.000000 0.000000 55.810091 -21.569994 68.203063 -57.293700 53.506519 -32.324914 -0.018439 -0.008945 26.855238 7.125000 0.000000 0.000000 
11.331943 17.982196 -6.867931 -81.250610 -85.837803 94.210346 -13.992672 -6.843910 -23.680075 0.681838 6.345410 21.788065 -3.687707 14.231014 -2.567530 0.024800 -1.016700 -2.794800 16.723189 6.077719 -29.400582 -3.900254 -11.021270 37.143272 4.131835 -14.337163 -7.845090 -0.100400 -2.043700 5.626600 4.537421 0.544232 19.157328 1.754505 0.902338 -2.424955 2.042826 -6.708961 29.769251 0.654600 -4.000200 12.509300 -71.909961 29.792866 53.289061 60.874617 -54.302362 -34.411882 0.926385 -0.529011 15.931507 -7.125000 0.000000 0.000000 55.893818 -21.596611 68.220562 -57.128612 53.460797 -32.185249 -0.018475 -0.009143 26.609100 7.125000 0.000000 0.000000 
11.356699 17.989101 -6.903734 -86.143454 -85.827818 99.265495 -13.725992 -7.104087 -23.704459 0.654508 6.305976 21.614699 -3.843034 14.753376 -2.589074 0.018600 -0.880900 -2.421300 16.804418 6.086636 -28.978435 -3.790302 -10.881620 36.673582 4.254275 -14.648136 -7.874488 -0.118700 -2.221400 6.118000 4.563855 0.598846 19.158854 1.771114 0.931030 -2.328954 2.542971 -6.678990 29.204982 0.865300 -3.931800 12.255300 -71.720250 29.640505 53.461694 60.844425 -54.291308 -34.383921 0.922921 -0.532305 15.902664 -7.125000 0.000000 0.000000 56.015970 -21.615569 68.043894 -57.059971 53.437093 -32.126163 -0.018371 -0.009617 26.636884 7.125000 0.000000 0.000000 
11.382146 17.995512 -6.936479 -90.992246 -85.819728 104.276107 -13.506079 -7.284393 -23.770980 0.625818 6.268229 21.466311 -3.922148 15.016497 -2.739589 0.002800 -0.340900 -0.936500 16.852505 6.075875 -28.579674 -3.673655 -10.733446 36.144879 4.448204 -15.137169 -7.742513 -0.103200 -2.071900 5.704300 4.572127 0.593657 19.152094 1.776065 0.926740 -2.261403 2.842824 -6.565102 28.978273 1.017000 -3.866300 12.174500 -71.729541 29.554541 53.395321 60.716154 -54.257407 -34.273153 0.932515 -0.523662 15.863148 -7.125000 0.000000 0.000000 55.992576 -21.479021 67.996609 -57.018029 53.423274 -32.091088 -0.018681 -0.010061 26.752860 7.125000 0.000000 0.000000 
11.405324 18.003402 -6.968830 -95.058459 -85.781381 108.438391 -13.309221 -7.378693 -23.799992 0.605193 6.238531 21.336755 -4.005161 15.292917 -2.714118 0.000100 0.051500 0.141500 16.879638 6.005511 -28.148102 -3.544458 -10.573565 35.571421 4.544491 -15.345645 -7.472857 -0.105700 -2.096600 5.772700 4.628409 0.515127 19.177524 1.782082 0.888665 -2.211667 2.717593 -6.634239 28.994199 0.951100 -3.904400 12.205700 -71.677136 29.557909 53.414616 60.816522 -54.283003 -34.358107 0.934292 -0.523115 15.647098 -7.125000 0.000000 0.000000 55.843792 -21.344341 68.014709 -57.097647 53.447417 -32.157685 -0.018644 -0.009458 26.887163 7.125000 0.000000 0.000000 
11.425346 18.013265 -7.002463 -98.865979 -85.690728 112.285730 -13.115024 -7.383209 -23.798588 0.588812 6.211580 21.195221 -4.136457 15.734965 -2.500195 0.000200 -0.099800 -0.274300 16.943554 5.954487 -27.654386 -3.410646 -10.401708 34.966714 4.635728 -15.536214 -7.149842 -0.110400 -2.142500 5.899700 4.694036 0.462082 19.190189 1.761831 0.862873 -2.193170 2.793645 -6.523083 28.908203 1.008900 -3.862500 12.172100 -71.427165 29.697255 53.720398 61.234939 -54.389047 -34.713438 0.927163 -0.526165 15.518654 -7.125000 0.000000 0.000000 55.826672 -21.345703 67.965267 -57.145585 53.461507 -32.197593 -0.018246 -0.009108 27.210955 7.125000 0.000000 0.000000 
11.444776 18.021254 -7.037772 -104.235135 -85.774989 117.580511 -13.168876 -7.272932 -23.711057 0.572356 6.175376 21.068565 -4.236752 16.074564 -2.397294 0.000400 -0.130400 -0.358300 16.783274 5.928492 -27.052557 -3.265010 -10.225516 34.313900 4.739797 -15.758092 -6.840298 -0.091500 -1.950900 5.369900 4.467456 0.533996 19.273228 1.812126 0.878086 -2.252691 3.009675 -6.653350 29.034399 1.071400 -3.892700 12.257100 -71.029040 29.684751 54.124413 61.441876 -54.439556 -34.892909 0.922154 -0.538282 15.411384 -7.125000 0.000000 0.000000 56.058292 -21.398119 67.729070 -57.036954 53.433419 -32.109238 -0.017627 -0.010523 27.690708 7.125000 0.000000 0.000000 
11.468151 18.025890 -7.072688 -108.952823 -85.889347 122.355151 -13.207458 -7.414961 -23.677712 0.550291 6.121907 20.919826 -4.312367 16.324736 -2.414884 0.000400 0.131400 0.360900 16.610967 5.808550 -26.634919 -3.107425 -10.044561 33.626622 4.828251 -15.945764 -6.617666 -0.019800 -0.909600 2.500100 4.249642 0.521405 19.365413 1.898750 0.852832 -2.210252 2.915092 -6.536776 28.933232 1.019300 -3.830800 12.223800 -71.023410 29.533946 54.113598 61.267174 -54.390305 -34.749838 0.914730 -0.559679 15.445847 -7.125000 0.000000 0.000000 56.131897 -21.273411 67.674000 -57.002770 53.424631 -32.082207 -0.018132 -0.011278 27.953940 7.125000 0.000000 0.000000 
11.492020 18.027665 -7.108195 -111.602955 -85.819739 125.149813 -13.076514 -7.464922 -23.764434 0.521870 6.065099 20.703881 -4.418577 16.682793 -2.178691 0.002300 -0.307400 -0.844700 16.706474 5.516207 -26.366138 -2.943528 -9.846279 32.910094 4.873439 -16.019695 -6.362795 -0.023100 0.981200 -2.697000 4.382878 0.445193 19.344712 1.938227 0.822451 -2.154686 2.791697 -6.561733 28.815833 0.970600 -3.856200 12.167200 -71.407211 29.552651 53.950030 60.993973 -54.317489 -34.519405 0.900428 -0.567027 15.725234 -7.125000 0.000000 0.000000 55.956664 -21.262661 67.869327 -57.052635 53.437306 -32.122768 -0.019262 -0.010756 27.627281 7.125000 0.000000 0.000000 
11.515987 18.029638 -7.145477 -114.881739 -85.717419 128.589353 -12.968853 -7.437220 -23.874034 0.501927 6.016901 20.499214 -4.572824 17.213417 -1.802191 0.033100 -1.173700 -3.226800 16.738366 5.415906 -26.079444 -2.744811 -9.612185 32.122783 4.708711 -15.533943 -6.396002 -0.071300 1.722300 -4.738700 4.277965 0.463234 19.267870 1.892391 0.816760 -2.152587 2.804806 -6.603038 28.840311 0.960700 -3.867900 12.159700 -71.425726 29.657336 53.933212 61.033437 -54.330024 -34.538522 0.882719 -0.558611 15.709169 -7.125000 0.000000 0.000000 56.051601 -21.382823 68.002715 -56.850375 53.372023 -31.952044 -0.020388 -0.011932 26.925806 7.125000 0.000000 0.000000 
11.536009 18.036542 -7.185521 -119.814501 -85.672561 133.648712 -12.972382 -7.410844 -23.913367 0.481027 5.965349 20.329539 -4.682724 17.585520 -1.683694 0.043000 -1.337800 -3.678900 16.511322 5.608208 -25.668768 -2.516183 -9.341995 31.225857 4.418071 -14.705391 -6.491204 -0.062600 1.614900 -4.442600 4.101070 0.490323 19.232597 1.951233 0.811698 -2.137550 2.712313 -6.561912 28.849790 0.909700 -3.847600 12.152800 -71.175572 29.852429 54.104564 61.545656 -54.460507 -34.968225 0.894073 -0.538617 15.468584 -7.125000 0.000000 0.000000 56.076753 -21.433645 68.200373 -56.734623 53.335129 -31.853325 -0.019790 -0.011683 26.375723 7.125000 0.000000 0.000000 
11.554749 18.040586 -7.224776 -123.322936 -85.557540 137.297255 -12.885135 -7.314408 -23.994104 0.444889 5.902139 20.123932 -4.706068 17.653288 -1.694638 0.025400 -1.028500 -2.827300 16.396094 5.737308 -25.320434 -2.293445 -9.055960 30.274667 4.268554 -14.253014 -6.398690 -0.086300 1.895200 -5.216100 4.125417 0.438358 19.233991 1.999023 0.782666 -2.048473 2.687053 -6.493956 28.805437 0.906700 -3.822400 12.141800 -71.095677 29.929323 54.239064 61.849922 -54.533069 -35.238311 0.928390 -0.520424 15.564768 -7.125000 0.000000 0.000000 55.915887 -21.352268 68.461233 -56.734259 53.332325 -31.851436 -0.020179 -0.011115 26.186512 7.125000 0.000000 0.000000 
